<?xml version="1.0" encoding="UTF-8"?>
<svg width="45.1555mm" height="31.2091mm" version="1.1" viewBox="0 0 45.1555 31.2091" xmlns="http://www.w3.org/2000/svg" xmlns:cc="http://creativecommons.org/ns#" xmlns:dc="http://purl.org/dc/elements/1.1/" xmlns:rdf="http://www.w3.org/1999/02/22-rdf-syntax-ns#">
	<metadata>
		<rdf:RDF>
			<cc:Work rdf:about="">
				<dc:format>image/svg+xml</dc:format>
				<dc:type rdf:resource="http://purl.org/dc/dcmitype/StillImage"/>
				<dc:title/>
			</cc:Work>
		</rdf:RDF>
	</metadata>
	<rect x="1.46522e-7" y="1.3301e-5" width="15.1456" height="5.50748" fill="#fff" stop-color="#000000" stroke-linecap="round" stroke-linejoin="round" stroke-width=".0202142"/>
	<g transform="translate(-98.3664 -93.3164)">
		<g transform="matrix(.155434 0 0 .155434 -269.576 109.64)" fill="none" stroke-linecap="square" stroke-linejoin="bevel">
			<g transform="matrix(.31688 0 0 .31688 2280.13 -131.059)">
				<path d="m364.97 162.282c-0.21067-0.212 0.63467 0 0.84533-0.42267h-1.68933c-0.212 0-0.212-0.212-0.212-0.424-1.05733 0.212-2.324 0.63467-3.38133 0.84667-1.47867 0.42133-2.74667 1.47866-4.43734 1.90133-2.324 0.84533-4.22533 2.74667-6.76133 3.592-0.21067 0-0.21067-0.21067-0.21067-0.42267 0.21067-0.63466 1.056-0.84533 1.47867-1.48 0-0.21066 0-0.42133-0.212-0.42133 1.69067-2.32533 4.016-3.592 6.128-5.49467v-0.63333c0.63467-0.84533 1.69067-1.268 2.11333-2.32533 0.212-0.63334 1.056-1.47867 2.11334-1.90134-0.212-0.21066-0.63467-0.21066-0.63467-0.63333-0.844 0-1.68933 0.42267-2.536-0.212 0.39467-0.39333 0.848-0.61067 1.32667-0.75067-0.184-0.0373-0.34667-0.12666-0.48-0.30533-0.212-0.42267 0.408-0.89467 1.056-1.056 0.84533-0.212 1.90133-0.212 2.536-0.84667-1.48-0.21066-3.16934 0.424-4.64934-0.42133 1.05734-2.748 2.74667-5.072 5.28267-6.33867 0.21067 0 0.63467 0 0.63467 0.21067 0 1.056-0.63467 1.90133-1.69067 2.11333 1.69067 0.42267 3.38 0.42267 5.07067 1.26667-0.21067 0.42267-0.63467 0.212-0.84534 0.212 1.05734 0.63333 2.32534 0.21067 3.38134 1.05733-0.63467 0.63334-1.268 0-1.90134 0 6.55067 1.9 13.5227 3.38 19.016 7.60534-4.648 2.32533-9.508 3.38133-14.5787 4.43733-0.63467 0-1.05734 0-1.69067-0.21067 0 0.21067 0 0.63467-0.212 0.63467-0.844 0-1.47867 0-2.112 0.42267-0.84533 0.42133-2.11333 0.63333-2.748 0zm-4.32667 14.6987c-0.0173 0.012-0.0347 0.024-0.052 0.036-0.792 0.55734-1.58 1.12534-2.41333 1.60934-0.904 0.524-1.84933 0.92266-2.788 1.368-7e-3 -0.0173-0.0147-0.0347-0.0267-0.0507-0.0707-0.0987-0.21866-0.16-0.356-0.0853-0.8 0.432-1.48133 1.004-2.128 1.62-0.0987 0.0933-0.196 0.188-0.29333 0.284-5e-3 5e-3 -0.012 0.0107-0.0173 0.016l-0.016 0.016c-0.10134 0.1-0.20134 0.19866-0.3 0.3-0.0133 0.0107-0.024 0.0227-0.036 0.0347-7e-3 7e-3 -7e-3 0.0133-0.0133 0.02-0.14933 0.14933-0.296 0.3-0.46 0.49333-0.10533 0.12534-0.14133 0.20267-0.28133 0.296-0.132 0.0867-0.49467 0.0853-0.46134-0.15866 1e-3 -0.0133 1e-3 -0.0267 3e-3 -0.0413-0.12533 0.0667-0.24933 0.132-0.37466 0.192-0.116 0.056-0.22267 0.11867-0.33067 0.18134-0.0453-0.0173-0.0947-0.024-0.14533-0.0213-0.0533 4e-3 -0.108 0.016-0.152 0.052-0.25867 0.20267-0.51467 0.41734-0.764 0.64267-0.44134 0.4-0.85734 0.836-1.22534 1.304-8e-3 5e-3 -0.0133 0.012-0.02 0.0187-0.0133 0.02-0.028 0.04-0.0413 0.0587-0.02 0.028-0.0427 0.0547-0.0627 0.0827-0.0227 0.0293-0.0453 0.0573-0.0667 0.0867-7e-3 9e-3 -0.0147 0.0173-0.0213 0.0267-0.0507 0.068-0.0947 0.14-0.144 0.20934-3e-3 4e-3 -5e-3 9e-3 -8e-3 0.0133-0.036 0.0387-0.096 0.0667-0.17333 0.0827-0.028-0.0427-0.0573-0.0827-0.084-0.12667-0.0213-0.032-0.04-0.0667-0.06-0.10133-0.0627-0.10934-0.12267-0.22267-0.18-0.33867-1e-3 -4e-3 -4e-3 -8e-3 -5e-3 -0.012-0.0173-0.0347-0.0347-0.0707-0.0507-0.10533 0.22933-0.24667 0.45067-0.5 0.664-0.76 0.0133-0.0173 0.028-0.0347 0.0413-0.052 0.0747-0.0893 0.148-0.18 0.22-0.272 0.12-0.14934 0.23733-0.3 0.35467-0.45067 0.0427-0.056 0.0867-0.112 0.12933-0.168 0.232-0.30267 0.45333-0.59733 0.66-0.892 5e-3 -8e-3 0.0107-0.016 0.016-0.0227 0.0307-0.0453 0.0613-0.0893 0.0907-0.13333 0.10133-0.14934 0.19867-0.30134 0.28933-0.45467 0.0827-0.13733 0.16-0.27733 0.232-0.42133 5e-3 -0.0107 0.0107-0.02 0.016-0.0307 8e-3 -0.0147 0.016-0.0293 0.0227-0.044 0.0133-0.0253 0.0227-0.0533 0.0347-0.0787 0.0747-0.16 0.14133-0.324 0.20133-0.49334 7e-3 -0.0173 0.012-0.036 0.0187-0.0547 0.016-0.0453 0.032-0.0907 0.0467-0.13866 0.024-0.076 0.0453-0.15334 0.0667-0.232v-1e-3c4e-3 -0.0173 8e-3 -0.0347 0.012-0.0507 0.0253-0.10267 0.0533-0.204 0.0733-0.31067 0.0107-0.056-4e-3 -0.10133-0.0253-0.14267 0.22667-0.396 0.512-0.77733 0.83734-1.14-0.0307 0.0187-0.0667 0.036-0.0973 0.0547-0.30134 0.19467-0.50267 0.46667-0.784 0.67734-0.23067 0.172-0.65467-0.112-0.38134-0.316 0.18534-0.13867 0.32667-0.29067 0.48-0.436 9e-3 -0.012 0.012-0.0227 0.0227-0.0333 0.348-0.344 0.68134-0.784 1.07734-1.07334 0.24266-0.17733 0.45466-0.32533 0.65066-0.496 0.032-0.0267 0.0627-0.056 0.092-0.084 0.14667-0.19466 0.30667-0.36933 0.47334-0.53333 8e-3 -7e-3 0.0133-0.0147 0.0227-0.0213 2.02133-1.95067 5.42667-1.86533 8.09333-3.10933 1.056-0.42267 2.324 0.212 3.38134 0 0.63333 0 1.26666 0 1.9 0.42266-1.89734 1.036-3.652 2.20267-5.38267 3.28934zm3.78667 1.74534c-0.096 0.232-0.31067 0.432-0.52133 0.61733 0.264 0.0533 0.44933 0.16933 0.27866 0.32667-0.48933 0.44933-0.95733 0.9-1.60133 1.11733-0.044 0.0147-0.17333 0.0347-0.324 0.044-0.25867 0.25067-0.52 0.5-0.78933 0.73867-0.25067 0.22133-1.412 0.0613-1.05734-0.25334 0.53734-0.47466 1.03334-0.992 1.56267-1.47466 0.29867-0.27334 0.61467-0.53467 0.87867-0.84134 0.14666-0.17066 0.268-0.33733 0.45333-0.468 0.17333-0.12266 1.29067-0.22133 1.12 0.19334zm-9.81333-31.6587c-0.21067 0.42267-0.44534 0.468-0.63334 0.84533-0.212 0.42267-0.42266 0.63334-0.84533 0.84534-0.212 0-0.424 0-0.424-0.212 0.212-0.844 0.84667-1.68934 1.692-1.90134 0.21067 0 0.21067 0.212 0.21067 0.42267zm-17.5387 13.9453s-0.21066-0.21066-0.21066-0.42133c2.74666-3.59333 4.86-6.97333 6.76133-10.776 2.748-1.48 5.02666-3.63333 7.18533-5.91733 3.592-3.804 7.39467-7.184 11.832-9.29734 1.69067-0.63333 3.804-0.42266 5.49467 0.212-0.63467 0.844-1.69067 0.63334-2.536 1.26667-0.212 0-0.42267 0-0.63467-0.21067 0.212-0.212 0.212-0.42266 0.212-0.63466-2.11333 2.32533-5.072 3.38133-6.76133 6.128-1.268 2.11333-2.11334 4.86-4.86 5.49466-0.84667 0.21067 0.21066-0.63466-0.212-0.42266-6.55067 4.01466-11.1987 8.87466-16.2707 14.5787zm32.3293 4.64934c-0.42133 0-1.26666 0.21066-1.056-0.21067 0.21067-1.05733 1.69067-1.05733 2.53467-1.48 0.424-0.21067 1.05733-0.63333 1.48-0.42267 0.42267 0.63467 1.056 0.42267 1.48 0.84534-1.26933 1.268-2.96 0.63466-4.43867 1.268zm32.4947 15.1373c1.2-1.20133 2.412-2.48933 3.616-3.78267h-0.0267c2.24667-2.54 4.44533-4.96266 7.048-7.19333 0.79333-0.708 1.56267-1.332 2.29867-1.83733 0.21066-0.21067 0.21066-0.63334 0.42266-0.84534-1.056 0.424-1.69066 1.268-2.74666 1.69067-0.212 0-0.42267-0.21067-0.212-0.42267 0.75333-0.564 1.50533-1.128 2.25733-1.69333-0.0453 3e-3 -0.096 3e-3 -0.144 3e-3 -0.21067 0-0.21067-0.21067-0.21067-0.42267-2.748-0.42266-4.86 1.48-6.76266 3.17067-0.42267 0.21067-0.84534-0.212-1.056-0.212-3.16934 1.05733-5.49467 3.804-8.664 5.072v-0.424c-1.268 0.424-2.49867 1.19067-3.80267 1.48-1.90267 0.42267-3.59333 0.212-5.284 0.212-2.56 0.25467-5.12133 0.82-7.68267 1.36667-0.0733 0.02-0.148 0.036-0.22133 0.056-1.37333 0.376-2.66933 0.888-3.93733 1.58533-0.0493 0.0267-0.096 0.0547-0.14267 0.084-0.10667 0.132-0.20933 0.25867-0.30667 0.36533-0.45466 0.5-0.84666 0.95734-1.44933 1.26534-1.29866 0.66-2.35866 1.81066-3.504 2.74533-0.0827 0.0667-0.208 0.1-0.33866 0.10667-1.13334 1.088-2.252 2.19067-3.40267 3.25867-0.0813 0.0747-0.40933 0.116-0.64533 0.0773 5e-3 -8e-3 0.0133-0.012 0.0173-0.02 0.0413-0.0667 0.0813-0.13467 0.12266-0.20133 0.17734-0.29867 0.35867-0.596 0.54134-0.89067 0.204-0.33067 0.41333-0.65867 0.62666-0.98267 0.288-0.436 0.584-0.868 0.89867-1.28666 0.0827-0.108 0.06-0.20534-7e-3 -0.27734-0.068-0.0693-0.17867-0.11066-0.292-0.10933 1.05333-1.02267 2.30667-1.89467 3.54667-2.64667 0-0.0133-1e-3 -0.024-1e-3 -0.036-0.14 0.048-0.34534-0.064-0.23867-0.21333 0.13333-0.18667 0.23867-0.38534 0.364-0.576 0.024-0.0627 0.0453-0.12534 0.068-0.188-0.0533-0.056-0.10667-0.11067-0.16-0.16667-0.34 0.22267-0.704 0.43333-0.99333 0.69333-0.50534 0.456-0.90134 1.388-1.668 1.37867-0.0507 0-0.2-8e-3 -0.32-0.0453-0.092-0.016-0.172-0.0413-0.22267-0.0747 9e-3 -0.0173 0.0187-0.0333 0.028-0.0493 9e-3 -0.02 0.0213-0.0387 0.032-0.0587 9e-3 -0.0187 0.02-0.036 0.0307-0.0547 0.032-0.06 0.0653-0.12133 0.1-0.18133 0.0333-0.0613 0.0667-0.12134 0.1-0.18267 0.028-0.048 0.0533-0.0973 0.0813-0.14667 0.0507-0.0893 0.0987-0.17866 0.14933-0.268 0.0373-0.064 0.0747-0.12666 0.112-0.19066 0.0893-0.156 0.18-0.31067 0.272-0.46667 0.044-0.0747 0.0867-0.14933 0.13067-0.224 0.076-0.128 0.148-0.25733 0.224-0.384 0.10533-0.176-4e-3 -0.32-0.15867-0.37733 0.392-0.508 0.87067-0.93334 1.44667-1.26134h-0.0627c0.808-0.40666 1.61733-0.90266 2.42667-1.35733 0.116-0.1 0.232-0.20267 0.34933-0.30133-1.20667 0.404-2.28933 0.95333-3.36133 1.65866 0 0-0.27867 0.11334-0.35734 0.192 0 0-0.24266 0.092-0.52666-0.192-0.0293-0.0387-0.0507-0.0867-0.0507-0.156 0.212-0.42266 0.84533-0.63333 1.268-1.056 0.212 0 0.42266 0 0.42266 0.21067 6.76133-5.28267 16.0587-4.01333 23.8773-6.76133 0.63334-0.42267 1.268-0.84534 1.90134-1.268 1.056-0.42134 1.90133-1.47867 3.16933-2.11334 1.69067-1.26666 2.95867-2.74666 3.592-4.86 0-0.21066-0.21067-0.42133-0.21067-0.42133-2.74666 2.95733-5.91733 5.28133-9.29733 6.97333-4.43733 2.324-9.29733 1.90134-13.9467 2.53467 0.212-0.42267 0.63467-0.42267 1.05734-0.42267 0-0.63466 0.42266-0.84533 0.84533-1.268h0.63333c0.212 0 0.212-0.42266 0.42267-0.42266 0.42267 0 1.05733-0.21067 0.84533-0.21067-0.63333-0.84533-1.90133 0.63333-2.95733 0 0.42133-0.42267 0.21067-1.05733 0.63333-1.268h0.844c0-0.42267 0.424-0.84533 0.424-0.84533 3.16934-1.90134 6.128-3.38 9.08534-5.07067-0.63334 0-1.056 0.63333-1.69067 0.21067 0.424 0 0-0.63334 0.424-0.63334 2.324-0.63466 4.22533-1.90266 6.54933-2.74666-0.84533 0-1.47866 0.63333-2.324 0 0.42267-0.212 0.63334-0.63467 1.268-0.63467v-0.63333c0-0.212 0.21067-0.212 0.42267-0.212-0.212 0-0.42267-0.21067-0.42267-0.21067 0.21067-0.42267 0.84534-0.212 1.26667-0.63467-0.21067 0-0.63333 0-0.63333-0.21066 0.63333-0.84534 1.69066-1.05734 2.74666-1.268-0.21066-0.42267-0.84533 0-0.84533-0.42267 0-0.212 0.212-0.212 0.42267-0.212h-0.42267c-0.42133-0.21067-0.21067-0.63333-0.21067-0.844 1.268-1.48 1.268-3.38133 1.90134-5.072-0.212 0-0.42267 0-0.42267-0.21067-2.11333 2.324-5.49333 3.16934-8.66267 4.01467h-1.05733c-1.056 0.42133-2.536 0.42133-3.592-0.212-0.844-0.42267-1.268-1.056-2.11333-1.69067-1.68934-1.056-3.38-1.90133-5.28267-2.53466-5.28133-1.69067-10.776-2.536-16.2693-2.32534 2.324-1.26666 4.888-1.37466 7.396-2.112 3.592-1.05733 6.972-2.324 10.776-2.11333-0.63334-0.21067-1.47867 0-2.11334 0-2.95733-0.21067-5.91599 0.63333-9.08666 1.268-2.112 0.42267-4.01333 1.268-6.12667 1.69067-1.268 0.42133-1.90266 1.69066-3.38133 1.47866v-0.63466c2.11333-2.53467 4.648-5.07067 8.02933-5.28267 3.804-0.63333 7.396 0 11.2 0.42267 2.74533 0.212 5.28133 0.84666 8.028 1.48 1.05733 0 1.26933 1.69066 2.11467 1.90133 1.26666 0.42267 2.53466 0 3.80266 0.84533 0-0.42266-0.21066-0.84533 0-1.268 0.84534-0.84533 1.90134 0.212 2.74667-0.21066 1.69067-1.05734-1.47867-2.95867-2.324-4.43734 0-0.21066 0.21067-0.42266 0.21067-0.42266 1.69066 1.47866 2.95866 3.16933 5.072 4.22533 1.056 0.42267 3.592 1.05733 3.16933-0.21067-1.056-2.32533-3.16933-4.22666-4.86-6.33866v-0.84667c-0.42267 0-0.42267-0.21067-0.63333-0.42133v-0.84534c-0.84534-0.42266-0.63467-1.268-1.05734-1.90266-0.63333-1.056-0.21066-2.53467-0.63333-3.80267s-0.63467-2.324-0.84533-3.592c-0.63334-3.592-1.47867-6.76133-1.90267-10.1427-0.42133-4.01466 2.32533-7.184 4.22667-10.776 1.48-2.536 3.16933-5.07066 5.916-6.76266 0.63466-2.53467 2.32533-4.648 4.016-6.76133 1.68666-2.06133 4.49066-3.31867 6.52266-4.22533 2.95071-1.31867 5.61471-2.144 5.61604-2.144h-145.015v111.818h102.695c4.02267-2.896 8.04134-4.272 13.656-7.03866 2.65067-1.30667 8.71734-4.09334 10.7733-6.148" fill="#000091"/>
				<path d="m582.278 82.1671h-120.285c1e-3 0 0.22667 0.03733 1.14267 0.528 0.976 0.524 2.24 1.2 3.03467 1.616 1.54933 0.810667 3.05733 1.82667 4.02933 3.38 0.42267 0.634667 1.056 1.90267 0.63333 2.74667-0.42266 1.05733-0.63333 2.748-1.69066 3.17067-1.26667 0.633333-2.95867 0.633333-4.43734 0.421333-0.84533 0-1.69066-0.210666-2.53466-0.421333 3.16933 1.26667 6.12666 2.74667 8.24 5.70533 0.212 0.421334 1.056 0.633334 1.90133 0.633334 0.212 0 0.212 0.422667 0.212 0.633337-0.42267 0.424-0.84533 0.63466-0.63467 1.268h0.63467c1.056-0.42267 0.84533-2.53467 2.324-1.90134 1.05733 0.633337 1.47866 2.11334 0.84533 3.16934-0.84533 0.84533-1.69066 1.47866-2.536 2.11333-0.21066 0.42267-0.21066 1.056 0 1.47867 0.63467 0.84533 0.84534 1.69066 1.056 2.536 0.63467 1.47866 0.84667 3.16933 1.48 4.648 0.84533 3.17066 1.69067 6.33999 1.47867 9.50933 0 1.69066-0.84534 3.16933-0.21067 4.86 0.42267 1.69066 1.47867 2.95866 2.324 4.43733 0.84533 1.268 1.69067 2.11333 2.324 3.38 1.268 2.11333 3.592 4.22667 2.536 6.76267-0.63333 1.47866-2.95867 1.26666-4.43733 2.11333-1.268 1.056-0.212 2.74667 0.42266 3.80267 1.056 1.90133-1.268 3.16933-2.74666 3.804 0.42133 0.63333 1.268 0.42133 1.47866 0.844 0.21067 1.05733 1.268 1.69066 0.63334 2.748-0.844 1.268-3.38 1.90133-2.112 3.80266 0.84533 1.47867 0.29733 3.12267-0.212 4.64934-0.63334 1.90133-2.324 2.74666-3.80267 3.16933-1.268 0.42267-2.74666 0.42267-4.016 0.21067-0.42133-0.21067-0.844-0.42134-1.26666-0.42134-3.59334-0.424-7.184-1.48-10.7773-1.48-1.056 0.21067-2.112 0.42267-2.95733 0.84534-0.95467 0.7-1.80533 1.46133-2.55867 2.26133-8e-3 9e-3 -0.016 0.0187-0.0253 0.028-0.15733 0.168-0.31067 0.34-0.46 0.512-0.092 0.10667-0.18267 0.21467-0.272 0.324-0.06 0.072-0.12133 0.14533-0.18 0.21867-0.61733 0.772-1.17067 1.58666-1.664 2.43466-0.0307 0.0533-0.0627 0.108-0.0933 0.16134-0.0547 0.0973-0.10934 0.19733-0.16267 0.296-0.69467 1.284-1.21867 2.59466-1.6 3.876-1.436 4.84-0.808 8.99066 0.2 9.99866 0.28 0.28 6.97467 2.348 11.6373 4.42133 2.18667 0.97334 3.71734 1.72267 4.98667 2.524h118.119v-111.819" fill="#e1000f"/>
				<path d="m469.148 122.959c0.84533 0.212 2.11333 0.212 2.11333 0.63467-0.42266 1.68933-2.96 2.112-4.22666 3.804h-0.63467c-0.63333 0.42133-0.42133 1.47866-1.056 1.47866-0.63467-0.212-1.26933 0-1.90133 0.21067 0.84533 0.84533 1.90133 1.48 3.16933 1.268 0.212 0 0.63333 0.424 0.63333 0.84667 0 0 0.212 0 0.42267-0.21334 0.212 0 0.424 0 0.424 0.21334v0.844c-0.63467 0.84533-1.692 0.42266-2.53733 0.63466 1.69066 0.42267 3.38133 0.42267 4.86 0 1.26933-0.42266 0-2.536 0.84666-3.59333-0.42266 0 0-0.63333-0.42266-0.63333 0.42266-0.42267 0.84533-1.056 1.26666-1.268 0.424 0 1.05734-0.21067 1.268-0.63467 0-0.42133-0.844-0.63333-0.63333-1.056 1.268-0.84533 2.324-2.11333 1.90267-3.38133-0.212-0.63334-1.90267-0.63334-2.95867-1.056-1.05733-0.42267-2.32533 0-3.592 0.21066-1.05733 0-2.11333 0.63467-3.17067 0.84534-1.47866 0.42266-2.74666 1.268-4.01466 2.11333 1.48-0.63333 2.95866-0.84533 4.648-1.268 1.26933 0 2.34533-0.312 3.59333 0" fill="#808080"/>
			</g>
			<g transform="matrix(.833334 0 0 .833334 2491.23 -305.021)" fill="#000" aria-label="PRÉFET">
				<path d="m-148.843 335.667h6.46915v-12.8927h4.05461c7.01584 0 11.2982-3.59903 11.2982-9.47594 0-5.92246-4.28239-9.5215-11.2982-9.5215h-10.5238zm10.7971-26.3777c2.73345 0 4.37351 1.50339 4.37351 3.91794 0 2.59677-1.64006 4.05461-4.37351 4.05461h-4.32795v-7.97255z"/>
				<path d="m-121.609 335.667h6.46915v-12.8927h3.32569l8.47368 12.8927h7.74476l-10.0226-14.1228c3.23457-1.54895 5.10243-4.41907 5.10243-8.24589 0-5.92246-4.32796-9.5215-11.3438-9.5215h-9.74928zm10.1137-26.3777c2.73345 0 4.32796 1.50339 4.32796 3.91794 0 2.59677-1.59451 4.05461-4.32796 4.05461h-3.64459v-7.97255z"/>
				<path d="m-79.2753 301.044 5.92246-6.15025h-6.65138l-5.14799 6.15025zm-12.1638 34.6236h18.5874v-5.51244h-12.1183v-7.97255h10.296v-5.51244h-10.296v-7.3803h12.1183v-5.51245h-18.5874z"/>
				<path d="m-65.1843 335.667h6.46915v-13.485h10.296v-5.51244h-10.296v-7.3803h12.1183v-5.51245h-18.5874z"/>
				<path d="m-40.798 335.667h18.5874v-5.51244h-12.1183v-7.97255h10.296v-5.51244h-10.296v-7.3803h12.1183v-5.51245h-18.5874z"/>
				<path d="m-17.1115 309.654h9.8404v26.0133h6.46915v-26.0133h9.8404v-5.87691h-26.1499z"/>
			</g>
			<g transform="matrix(.833334 0 0 .833334 2491.23 -305.021)" fill="#000" aria-label="DES ARDENNES">
				<path d="m-148.843 381.73h12.5283c10.1138 0 16.9474-7.33474 16.9474-15.9451s-6.83361-15.9451-16.9474-15.9451h-12.5283zm12.6194-26.0133c5.92246 0 10.2049 4.37351 10.2049 10.0682 0 5.64912-4.2824 10.0682-10.2049 10.0682h-6.15025v-20.1364z"/>
				<path d="m-112.978 381.73h18.5874v-5.51244h-12.1183v-7.97255h10.296v-5.51244h-10.296v-7.3803h12.1183v-5.51245h-18.5874z"/>
				<path d="m-89.5933 377.311c2.82456 3.37124 6.46915 5.33021 11.8449 5.33021 5.83135 0 10.4782-3.64459 10.5693-9.56705 0-10.7971-14.5784-9.47594-14.5784-15.1706 0-1.86785 1.45784-3.32569 3.69015-3.32569 2.41454 0 4.51018 1.54895 6.37804 3.9635l4.73797-4.23684c-2.68789-3.23458-6.37804-5.37577-11.1616-5.37577-6.05914 0-10.2049 4.19128-10.2049 9.24815 0 10.6149 14.5784 9.33926 14.5784 15.0339 0 2.32343-1.54895 3.69015-4.10017 3.69015-2.59677 0-5.14799-1.45784-7.0614-3.91794z"/>
				<path d="m-52.3703 381.73h6.87917l3.05235-8.29144h12.7561l3.05234 8.29144h6.87917l-12.0727-31.8902h-8.47368zm11.936-13.8039 4.37351-11.9816 4.37351 11.9816z"/>
				<path d="m-14.7212 381.73h6.46915v-12.8927h3.32569l8.47368 12.8927h7.74476l-10.0226-14.1228c3.23458-1.54895 5.10243-4.41907 5.10243-8.24589 0-5.92246-4.32795-9.5215-11.3438-9.5215h-9.74928zm10.1137-26.3777c2.73344 0 4.32795 1.50339 4.32795 3.91793 0 2.59678-1.59451 4.05461-4.32795 4.05461h-3.64459v-7.97254z"/>
				<path d="m15.4487 381.73h12.5283c10.1137 0 16.9474-7.33474 16.9474-15.9451s-6.83361-15.9451-16.9474-15.9451h-12.5283zm12.6194-26.0133c5.92246 0 10.2049 4.37351 10.2049 10.0682 0 5.64912-4.2824 10.0682-10.2049 10.0682h-6.15025v-20.1364z"/>
				<path d="m51.3133 381.73h18.5874v-5.51244h-12.1183v-7.97255h10.296v-5.51244h-10.296v-7.3803h12.1183v-5.51245h-18.5874z"/>
				<path d="m77.5681 381.73h6.46915v-22.9154l14.2595 22.9154h8.29144v-31.8902h-6.46915v22.8243l-14.2595-22.8243h-8.29145z"/>
				<path d="m115.657 381.73h6.46916v-22.9154l14.2595 22.9154h8.29145v-31.8902h-6.46915v22.8243l-14.2595-22.8243h-8.29145z"/>
				<path d="m153.746 381.73h18.5874v-5.51244h-12.1183v-7.97255h10.296v-5.51244h-10.296v-7.3803h12.1183v-5.51245h-18.5874z"/>
				<path d="m177.131 377.311c2.82456 3.37124 6.46915 5.33021 11.8449 5.33021 5.83135 0 10.4782-3.64459 10.5693-9.56705 0-10.7971-14.5784-9.47594-14.5784-15.1706 0-1.86785 1.45784-3.32569 3.69015-3.32569 2.41454 0 4.51018 1.54895 6.37804 3.9635l4.73797-4.23684c-2.68789-3.23458-6.37804-5.37577-11.1616-5.37577-6.05913 0-10.2048 4.19128-10.2048 9.24815 0 10.6149 14.5784 9.33926 14.5784 15.0339 0 2.32343-1.54896 3.69015-4.10017 3.69015-2.59677 0-5.14799-1.45784-7.0614-3.91794z"/>
			</g>
			<g transform="matrix(.315952 0 0 .315952 2285.06 -42.1177)" fill="#000">
				<path d="m284.312 435.168 0.61733-1.91346c-8.21227-1.54374-9.26173-1.54374-5.9888-10.4959l3.33413-9.2h9.076c4.07467 0 4.136 1.66667 3.51867 6.112h2.34667l5.43333-14.8788h-2.34667c-2.03733 3.51867-3.64266 6.112-8.088 6.112h-8.95333l4.75467-13.028c1.48266-4.136 2.34666-5.00133 7.904-5.00133h3.95066c5.74267 0 6.42134 1.544 6.42134 7.348h2.284l1.91466-10.1267h-34.0824l-0.6172 1.91467c6.60627 1.35867 7.2236 1.97467 4.13694 10.496l-7.4088 20.2521c-3.08747 8.4584-4.3844 9.13693-11.9787 10.4959l-0.5552 1.91346zm47.2933-24.8201c1.17333-4.01333 0.556-7.532-2.53067-7.532-3.644 0-4.56933 2.77734-8.27333 10.7428v-4.56946c0-3.272-1.05067-6.17334-4.01333-6.17334-3.45867 0-6.60667 5.372-9.01467 10.6813h1.60533c1.66667-2.408 3.21067-3.828 4.44534-3.828 1.48133 0 2.284 2.284 0 7.3468l-6.668 14.8187c-1.23467 2.77867 0.0613 4.56933 2.77733 4.56933 1.668 0 2.40933-0.43226 3.088-2.22293l6.54533-17.3505c1.852-2.28387 3.51867-4.26 5.61734-6.48267zm30.0067-8.952-2.59333-0.18666-2.90133 2.84133h-0.61734c-14.0773 0-26.2413 15.8065-26.2413 27.2904 0 3.20946 1.976 5.06306 5.06267 5.06306 3.64267 0 7.224-5.18693 11.2373-10.7443l-0.18533 1.976c-0.49333 5.68026 1.23467 8.76826 4.19866 8.76826 3.45734 0 6.60667-5.37186 9.01467-10.6828h-1.60533c-1.66667 2.40933-3.21067 3.82813-4.44534 3.82813-1.29733 0-2.22266-2.34533 0-7.34533zm-25.9933 25.3759c0-7.59427 8.45867-17.9052 13.212-17.9052 1.04933 0 2.03867 0.12267 2.90267 0.37067l-4.94 13.1507c-2.84 3.45734-7.224 7.65627-9.26133 7.65627-1.17334 0-1.91334-0.988-1.91334-3.2724m31.1787-19.2025h5.68l-9.01467 24.6348c-0.80267 2.10107 0.30933 4.2 2.47067 4.2 5.124 0 13.3973-5.06306 16.3-11.9776h-1.60534c-2.284 2.4068-6.668 5.61773-10.4347 6.2964l8.27333-23.1536h8.45867l1.04933-3.51867h-8.212l3.14933-8.892h-3.272l-5.86533 8.892-6.97733 0.98667zm40.3187 16.9171h-2.1c-2.65466 3.14947-5.49466 5.6188-8.336 5.6188-2.90133 0-4.38266-1.7292-4.38266-5.6188 0-1.6052 0.18533-3.2104 0.49333-4.6916l17.1027-5.6188c3.33466-7.90266-0.67867-11.36-5.37067-11.36-8.08933 0-17.2893 13.5215-17.2893 25.3761 0 5.30933 2.532 8.21199 6.484 8.21199 4.63066 0 9.44666-4.5084 13.3987-11.9177m-5.86666-17.1024c2.28533 0 4.26133 1.72934 3.21066 6.11334l-10.6187 2.46933c1.852-4.93867 4.93866-8.58267 7.408-8.58267m37.9107 2.964c1.17334-4.01333 0.556-7.532-2.532-7.532-3.64266 0-4.568 2.77734-8.27333 10.7428v-4.56946c0-3.272-1.04933-6.17334-4.01333-6.17334-3.45734 0-6.60667 5.372-9.01467 10.6813h1.60533c1.66667-2.408 3.21067-3.828 4.44534-3.828 1.48266 0 2.28533 2.284 0 7.3468l-6.668 14.8187c-1.23467 2.77867 0.0627 4.56933 2.77866 4.56933 1.66667 0 2.408-0.43226 3.08667-2.22293l6.54533-17.3505c1.852-2.28387 3.52-4.26 5.61867-6.48267zm0.12267 21.4868c-1.23467 2.77867 0.0613 4.56933 2.77867 4.56933 1.66666 0 2.408-0.43226 3.08666-2.22293l6.54534-17.3505c3.02533-3.704 9.26133-7.656 11.7307-7.656 1.79067 0 1.544 1.48133 0.37067 3.704l-10.064 19.3255c-0.988 1.91454 0.308 4.2 2.46933 4.2 4.94 0 10.8053-4.44533 13.1507-10.6828h-1.60534c-1.60533 2.28533-4.32133 4.81613-6.85333 5.24946l8.644-17.4735c1.112-2.22267 1.668-4.32267 1.668-5.98934 0-2.84-1.60667-4.692-4.56933-4.692-4.26134 0-8.58267 4.816-13.7067 10.7428v-4.56946c0-3.272-1.05066-6.17334-4.01333-6.17334-1.852 0-3.64267 1.60534-5.31067 3.88934v0.61733c3.212-0.184 4.63067 4.63067 2.34667 9.69347zm54.3933-37.7868c2.224 0 4.076-1.78933 4.076-4.07466 0-2.22267-1.852-4.07467-4.076-4.07467-2.284 0-4.07467 1.852-4.07467 4.07467 0 2.28533 1.79067 4.07466 4.07467 4.07466m-1.728 12.3493c0.67867-2.28534-0.864-3.58134-2.03733-3.58134-4.94 0-10.8053 4.444-13.1507 10.6813h1.60533c1.60534-2.28534 4.32134-4.816 6.85334-5.248l-9.44667 24.5736c-0.86533 2.28374 0.864 3.5812 2.03733 3.5812 4.692 0 10.1867-4.5084 12.5333-10.6828h-1.60534c-1.60533 2.28533-4.32133 4.81613-6.85333 5.24946zm7.656 1.172h5.68l-9.01467 24.6348c-0.80266 2.10107 0.30934 4.2 2.46934 4.2 5.12533 0 13.3987-5.06306 16.3-11.9776h-1.60534c-2.284 2.4068-6.668 5.61773-10.4333 6.2964l8.27333-23.1536h8.45867l1.04933-3.51867h-8.212l3.14934-8.892h-3.272l-5.86667 8.892-6.976 0.98667zm36.9213-7.90267 12.04-11.2373v-1.296h-6.484l-7.408 12.5333zm3.396 24.8197h-2.1c-2.65466 3.14947-5.49466 5.6188-8.336 5.6188-2.90133 0-4.38266-1.7292-4.38266-5.6188 0-1.6052 0.18533-3.2104 0.49333-4.6916l17.1027-5.6188c3.33466-7.90266-0.67867-11.36-5.37067-11.36-8.08933 0-17.2893 13.5215-17.2893 25.3761 0 5.30933 2.532 8.21199 6.484 8.21199 4.63066 0 9.44666-4.5084 13.3987-11.9177m-5.86666-17.1024c2.28533 0 4.26133 1.72934 3.21066 6.11334l-10.6187 2.46933c1.852-4.93867 4.93866-8.58267 7.408-8.58267"/>
				<path d="m296.537 309.894 12.0387-8.27333v-1.29734h-7.28534l-6.668 9.57067zm-4.94 25.8693c4.07467 0 4.136 1.66667 3.52 6.112h2.34533l5.43334-14.8787h-2.34667c-2.03733 3.51866-3.64267 6.11199-8.088 6.11199h-8.952l4.50667-12.4093c1.48266-4.13733 2.34666-4.94133 7.904-4.94133h3.95066c5.74267 0 6.42134 1.54533 6.42134 7.28667h2.284l1.91466-10.1253h-34.0824l-0.6172 1.91334c6.60627 1.35866 7.2236 1.97733 4.13694 10.496l-7.4088 20.252c-3.08747 8.45867-4.3844 9.13734-11.9787 10.4973l-0.5552 1.91333h37.9093l6.792-10.7427h-2.59333c-4.32133 4.07334-9.75467 7.964-17.3493 7.964-10.0639 0-9.13827-0.432-5.80347-9.632l3.5808-9.81733zm43.1587 26.4267c0-3.952-3.52-5.372-9.26267-7.1-4.93867-1.48267-7.16133-1.91467-7.16133-3.52 0-1.29734 1.04933-2.84 3.14933-3.952 8.088-0.432 13.336-7.71734 13.336-13.8293 0-1.29733-0.248-2.40933-0.68-3.39599h6.85333l1.05067-3.52h-10.8667c-1.29733-0.80267-2.84-1.23467-4.384-1.23467-8.58266 0-14.14 7.532-14.14 13.6453 0 4.63067 2.964 7.532 6.54534 8.21067-4.01334 1.792-6.236 3.89066-6.236 6.36133 0 1.41867 0.49466 2.40667 1.66666 3.33333-9.26 2.71734-12.904 5.80267-12.904 10.1867 0 4.26133 5.61867 6.052 12.288 6.052 11.2987 0 20.7453-6.112 20.7453-11.2373m-13.3987-16.9187c-2.03733 0-2.84-1.728-2.84-3.704 0-5.49467 2.964-13.584 7.59467-13.584 2.03733 0 2.84 1.72934 2.84 3.70533 0 5.496-2.964 13.5827-7.59467 13.5827m-12.7813 19.944c0-3.27333 3.14933-5.30933 7.65733-7.10133 1.48133 0.74133 3.704 1.544 6.66667 2.532 4.69333 1.544 6.484 2.16133 6.484 3.58133 0 3.02533-5.124 5.31067-12.1013 5.31067-5.86533 0-8.70666-1.236-8.70666-4.32267m62.8533-40.9973-2.59334-0.18533-2.90133 2.84h-0.61733c-14.0773 0-26.2413 15.8067-26.2413 27.2907 0 3.20933 1.976 5.06267 5.064 5.06267 3.64266 0 7.22399-5.18667 11.236-10.744l-0.184 1.97733c-0.49466 5.68 1.23467 8.76667 4.19734 8.76667 3.45733 0 6.60666-5.37067 9.01466-10.6813h-1.60533c-1.66667 2.408-3.21067 3.82667-4.44533 3.82667-1.296 0-2.22267-2.344 0-7.34533zm-25.9933 25.376c0-7.59467 8.45866-17.9053 13.2133-17.9053 1.04933 0 2.03733 0.124 2.90133 0.37067l-4.93867 13.1507c-2.84133 3.45733-7.224 7.65733-9.26266 7.65733-1.172 0-1.91333-0.98933-1.91333-3.27333m32.7227 4.19866 17.2267-45.1347-0.556-0.67867-10.8053 1.23467v1.29733l2.1 1.60534c1.91467 1.48133 1.296 2.90133-0.432 7.47066l-13.46 35.44c-0.988 1.91333 0.308 4.19867 2.46934 4.19867 4.94 0 10.188-4.44534 12.5333-10.6813h-1.60533c-1.60534 2.284-4.93867 4.816-7.47067 5.248m32.848-36.9227c2.22267 0 4.07467-1.78933 4.07467-4.07467 0-2.22266-1.852-4.07466-4.07467-4.07466-2.28533 0-4.076 1.852-4.076 4.07466 0 2.28534 1.79067 4.07467 4.076 4.07467m-1.72933 12.3493c0.67866-2.28533-0.864-3.58133-2.03734-3.58133-4.94 0-10.8053 4.44533-13.152 10.6813h1.60534c1.60533-2.284 4.32266-4.816 6.85333-5.248l-9.44667 24.5747c-0.864 2.28266 0.86534 3.58 2.03867 3.58 4.692 0 10.1867-4.508 12.5333-10.6813h-1.60533c-1.60533 2.284-4.32267 4.816-6.85333 5.248zm7.65466 1.17334h5.68134l-9.01467 24.6347c-0.80267 2.1 0.308 4.19867 2.46933 4.19867 5.12534 0 13.3987-5.06267 16.3-11.9773h-1.60533c-2.284 2.40667-6.668 5.61867-10.4347 6.296l8.27334-23.152h8.46l1.04933-3.52h-8.212l3.148-8.89067h-3.272l-5.86533 8.89067-6.97734 0.988zm36.9213-7.904 12.04-11.236v-1.29734h-6.48266l-7.40933 12.5333zm3.396 24.8213h-2.09867c-2.65467 3.14933-5.496 5.61733-8.33467 5.61733-2.90266 0-4.38533-1.72667-4.38533-5.61733 0-1.60667 0.18667-3.212 0.49467-4.69334l17.1027-5.61866c3.33467-7.90267-0.68-11.36-5.372-11.36-8.088 0-17.2867 13.5213-17.2867 25.376 0 5.30933 2.53066 8.212 6.48133 8.212 4.632 0 9.44667-4.508 13.3987-11.916m-5.86534-17.104c2.284 0 4.26 1.72933 3.21067 6.11333l-10.62 2.46933c1.852-4.93866 4.94-8.58266 7.40933-8.58266"/>
				<path d="m298.76 235.74h-22.4747l-0.61773 1.91333c6.60706 1.35867 7.2244 1.97734 4.13653 10.496l-7.28493 20.2533c-3.08747 8.45867-4.3844 9.13734-11.9787 10.496l-0.5552 1.91334h34.2053l7.40934-13.2133h-2.59334c-4.19866 4.632-9.13733 10.436-16.732 10.436-5.7424 0-6.4216-0.98933-3.33413-9.632l7.2848-20.2533c3.02533-8.45733 4.384-9.13733 11.9787-10.496zm24.8813 3.952c2.22267 0 4.07467-1.79067 4.07467-4.076 0-2.22267-1.852-4.07467-4.07467-4.07467-2.28533 0-4.07467 1.852-4.07467 4.07467 0 2.28533 1.78934 4.076 4.07467 4.076m-1.72933 12.348c0.68-2.284-0.864-3.58133-2.03734-3.58133-4.94 0-10.8053 4.44666-13.1507 10.6827h1.60533c1.604-2.28533 4.32133-4.81733 6.852-5.24933l-9.44667 24.5747c-0.86266 2.284 0.86534 3.58 2.03867 3.58 4.692 0 10.1867-4.50666 12.5333-10.68h-1.60533c-1.60533 2.28267-4.32133 4.81467-6.85333 5.24667zm33.588 3.272c0-5-1.85333-6.85333-5.31066-6.85333-4.32133 0-8.39733 4.56933-12.472 10.1267l10.3107-27.1053-0.55466-0.67867-10.8053 1.23467v1.296l2.09866 1.60533c1.91467 1.48267 1.29734 3.02534-0.432 7.47067l-11.1133 28.6493c-0.80267 2.09867-1.79067 4.56933-1.79067 5.248 0 2.96267 4.01334 5.74133 7.656 5.74133 8.39734 0 22.4133-15.1253 22.4133-26.7347m-19.4493 21.7333c-1.668 0-4.07466-1.54267-4.07466-2.90133 0-0.432 0.74-2.34534 1.66666-4.75467l2.77867-7.34666c2.96267-3.51867 7.47067-7.28667 10.0027-7.28667 1.54266 0 2.71599 0.98933 2.71599 3.27333 0 6.72933-6.29733 19.016-13.0893 19.016m41.9227-6.91467h-2.1c-2.65467 3.14934-5.49467 5.61867-8.33467 5.61867-2.90267 0-4.384-1.728-4.384-5.61867 0-1.60533 0.18533-3.20933 0.49467-4.692l17.1027-5.61999c3.33334-7.90134-0.68-11.36-5.372-11.36-8.08933 0-17.288 13.5213-17.288 25.376 0 5.31067 2.53067 8.212 6.48267 8.212 4.63067 0 9.44667-4.50666 13.3987-11.916m-5.86667-17.1027c2.28533 0 4.26133 1.728 3.21067 6.11333l-10.6187 2.46934c1.852-4.94 4.93867-8.58267 7.408-8.58267m37.9107 2.964c1.17333-4.01333 0.556-7.53333-2.532-7.53333-3.64267 0-4.568 2.77866-8.27334 10.7427v-4.568c0-3.272-1.04933-6.17466-4.01333-6.17466-3.45733 0-6.60533 5.372-9.01467 10.6827h1.60534c1.668-2.408 3.21066-3.82933 4.44533-3.82933 1.48267 0 2.28533 2.284 0 7.348l-6.668 14.8187c-1.23467 2.77734 0.0627 4.568 2.77867 4.568 1.66666 0 2.408-0.432 3.08666-2.22266l6.54534-17.3493c1.852-2.284 3.52-4.26 5.61866-6.48267zm4.444-2.77867h4.508l-9.01467 24.636c-0.80267 2.09867 0.308 4.19733 2.47067 4.19733 5.124 0 13.3973-5.06266 16.2987-11.9773h-1.604c-2.28533 2.408-6.66933 5.61867-10.436 6.29867l8.27334-23.1547h8.46l1.04933-3.51866h-8.212l3.14933-8.89067h-3.27333l-5.86533 8.89067-5.804 0.988zm35.3787-7.90266 12.04-11.2373v-1.29733h-6.48266l-7.41067 12.5347zm3.39467 24.82h-2.09867c-2.65466 3.14934-5.49466 5.61867-8.33466 5.61867-2.90134 0-4.384-1.728-4.384-5.61867 0-1.60533 0.18533-3.20933 0.49333-4.692l17.1027-5.61999c3.33466-7.90134-0.67867-11.36-5.37067-11.36-8.088 0-17.288 13.5213-17.288 25.376 0 5.31067 2.53067 8.212 6.48267 8.212 4.63066 0 9.44666-4.50666 13.3973-11.916m-5.864-17.1027c2.284 0 4.26 1.728 3.20933 6.11333l-10.6187 2.46934c1.852-4.94 4.93866-8.58267 7.40933-8.58267"/>
			</g>
		</g>
	</g>
</svg>
